<?xml version="1.0" encoding="UTF-8" standalone="no"?>
<svg
   version="1.1"
   id="Layer_1"
   x="0px"
   y="0px"
   viewBox="0 0 122.88 122.88"
   style="enable-background:new 0 0 122.88 122.88"
   xml:space="preserve"
   sodipodi:docname="pencil-square-icon.svg"
   inkscape:version="1.2.2 (732a01da63, 2022-12-09)"
   xmlns:inkscape="http://www.inkscape.org/namespaces/inkscape"
   xmlns:sodipodi="http://sodipodi.sourceforge.net/DTD/sodipodi-0.dtd"
   xmlns="http://www.w3.org/2000/svg"
   xmlns:svg="http://www.w3.org/2000/svg"><defs
     id="defs22" /><sodipodi:namedview
     id="namedview20"
     pagecolor="#ffffff"
     bordercolor="#000000"
     borderopacity="0.25"
     inkscape:showpageshadow="2"
     inkscape:pageopacity="0.0"
     inkscape:pagecheckerboard="0"
     inkscape:deskcolor="#d1d1d1"
     showgrid="false"
     inkscape:zoom="6.8115236"
     inkscape:cx="44.556845"
     inkscape:cy="61.513404"
     inkscape:window-width="1920"
     inkscape:window-height="1017"
     inkscape:window-x="1912"
     inkscape:window-y="-8"
     inkscape:window-maximized="1"
     inkscape:current-layer="Layer_1" /><style
     type="text/css"
     id="style13">.st0{fill-rule:evenodd;clip-rule:evenodd;}</style><g
     id="g17"
     style="fill:#f1dec9;fill-opacity:1"><path
       class="st0"
       d="M14.1,0h94.67c7.76,0,14.1,6.35,14.1,14.1v94.67c0,7.75-6.35,14.1-14.1,14.1H14.1c-7.75,0-14.1-6.34-14.1-14.1 V14.1C0,6.34,6.34,0,14.1,0L14.1,0z M81.35,28.38L94.1,41.14c1.68,1.68,1.68,4.44,0,6.11l-7.06,7.06L68.17,35.44l7.06-7.06 C76.91,26.7,79.66,26.7,81.35,28.38L81.35,28.38z M52.34,88.98c-5.1,1.58-10.21,3.15-15.32,4.74c-12.01,3.71-11.95,6.18-8.68-5.37 l5.16-18.2l0,0l-0.02-0.02L64.6,39.01l18.87,18.87l-31.1,31.11L52.34,88.98L52.34,88.98z M36.73,73.36l12.39,12.39 c-3.35,1.03-6.71,2.06-10.07,3.11c-7.88,2.42-7.84,4.05-5.7-3.54L36.73,73.36L36.73,73.36z"
       id="path15"
       style="fill:#f1dec9;fill-opacity:1" /></g></svg>
