<?xml version="1.0" encoding="UTF-8" standalone="no"?>
<svg
   version="1.1"
   id="Layer_1"
   x="0px"
   y="0px"
   width="122.882px"
   height="105.082px"
   viewBox="0 0 122.882 105.082"
   enable-background="new 0 0 122.882 105.082"
   xml:space="preserve"
   sodipodi:docname="wrench-icon.svg"
   inkscape:version="1.2.2 (732a01da63, 2022-12-09)"
   xmlns:inkscape="http://www.inkscape.org/namespaces/inkscape"
   xmlns:sodipodi="http://sodipodi.sourceforge.net/DTD/sodipodi-0.dtd"
   xmlns="http://www.w3.org/2000/svg"
   xmlns:svg="http://www.w3.org/2000/svg"><defs
     id="defs4293" /><sodipodi:namedview
     id="namedview4291"
     pagecolor="#ffffff"
     bordercolor="#000000"
     borderopacity="0.25"
     inkscape:showpageshadow="2"
     inkscape:pageopacity="0.0"
     inkscape:pagecheckerboard="0"
     inkscape:deskcolor="#d1d1d1"
     showgrid="false"
     inkscape:zoom="7.9652081"
     inkscape:cx="48.586301"
     inkscape:cy="52.603773"
     inkscape:window-width="1920"
     inkscape:window-height="1017"
     inkscape:window-x="1912"
     inkscape:window-y="-8"
     inkscape:window-maximized="1"
     inkscape:current-layer="Layer_1" /><g
     id="g4288"
     style="fill:#f1dec9;fill-opacity:1"><path
       fill-rule="evenodd"
       clip-rule="evenodd"
       d="M25.895,0c-2.999,0-5.879,0.512-8.557,1.449l6.808,7.368 c15.465,16.73-1.987,26.41-17.369,14.926l-5.932-4.429C0.294,21.415,0,23.622,0,25.896c0,14.303,11.593,25.896,25.895,25.896 c4.667,0,9.042-1.236,12.823-3.396l12.704,13.486L22.111,87.008c-0.938,0.563-1.774,1.281-2.47,2.119l-0.084,0.072l0.014,0.012 c-1.348,1.66-2.158,3.777-2.158,6.082c0,5.33,4.322,9.652,9.652,9.652c3.556,0,6.663-1.926,8.338-4.787L61.44,72.516l26.391,28.016 c1.694,2.73,4.721,4.551,8.17,4.551c5.304,0,9.605-4.301,9.605-9.605c0-2.385-0.872-4.568-2.312-6.248l0.03-0.029l-0.234-0.203 c-0.527-0.576-1.125-1.088-1.779-1.523L71.46,61.881l12.702-13.485c3.78,2.159,8.159,3.395,12.824,3.395 c14.302,0,25.896-11.593,25.896-25.896c0-2.274-0.295-4.481-0.846-6.582l-5.932,4.429c-15.381,11.484-32.833,1.805-17.368-14.926 l6.808-7.368C102.866,0.512,99.985,0,96.986,0C82.685,0,71.091,11.593,71.091,25.896c0,5.597,1.775,10.779,4.794,15.014 L61.44,53.291L46.996,40.908c3.018-4.235,4.794-9.416,4.794-15.013C51.79,11.593,40.197,0,25.895,0L25.895,0z"
       id="path4286"
       style="fill:#f1dec9;fill-opacity:1" /></g></svg>
